Coordinates
version=1
nRows=21
nColumns=22
inDegrees=yes

Units are S.I. units (second, meters, Newtons, ...)
If the header above contains a line with 'inDegrees', this indicates whether rotational values are in degrees (yes) or radians (no).

endheader
time	pelvis_tilt	pelvis_list	pelvis_rotation	pelvis_tx	pelvis_ty	pelvis_tz	hip_flexion_r	hip_adduction_r	hip_rotation_r	knee_angle_r	ankle_angle_r	subtalar_angle_r	hip_flexion_l	hip_adduction_l	hip_rotation_l	knee_angle_l	ankle_angle_l	subtalar_angle_l	lumbar_extension	lumbar_bending	lumbar_rotation
      1.44000000	      1.20776471	     -1.65821799	      2.17024267	      1.03901701	      0.93715891	     -0.00607937	      4.15266515	      0.97881279	    -14.72486937	    -16.27689502	     10.10245694	      0.24412296	      5.61905753	     -3.81330340	     -8.56173144	    -20.63007561	     12.30963612	     -2.96852513	     -8.61755372	     -0.25567307	     -6.46099794
      1.45000000	      1.19176926	     -1.57878881	      2.15420689	      1.03870485	      0.93706932	     -0.00569745	      4.29721660	      0.89639496	    -14.70492138	    -16.47838003	     10.18930975	      0.13231791	      5.67425292	     -3.76099872	     -8.61803932	    -20.66536115	     12.25264598	     -2.91833091	     -8.63722429	     -0.33598518	     -6.45506357
      1.46000000	      1.18557608	     -1.53470070	      2.14370927	      1.03836917	      0.93698958	     -0.00527585	      4.41849060	      0.86568087	    -14.65162794	    -16.64740816	     10.24860480	      0.02019631	      5.73581408	     -3.74797072	     -8.63303755	    -20.72516000	     12.21818884	     -2.86831995	     -8.66979203	     -0.37363882	     -6.46884447
      1.47000000	      1.19772554	     -1.49997366	      2.13325777	      1.03802078	      0.93693228	     -0.00481420	      4.52104693	      0.84722205	    -14.61276633	    -16.81497926	     10.28884854	     -0.07095640	      5.78928966	     -3.75100277	     -8.64972019	    -20.80444841	     12.19433469	     -2.82514835	     -8.72318809	     -0.40281065	     -6.48652727
      1.48000000	      1.21283186	     -1.46921181	      2.11847630	      1.03763574	      0.93686679	     -0.00430376	      4.62480312	      0.83585237	    -14.57143047	    -16.98592865	     10.33621646	     -0.16348717	      5.85807301	     -3.76279843	     -8.65712221	    -20.91337744	     12.16985233	     -2.77774742	     -8.78597360	     -0.42893918	     -6.50408368
      1.49000000	      1.21167211	     -1.44915133	      2.10480616	      1.03719559	      0.93676491	     -0.00374418	      4.75169773	      0.84114410	    -14.51550182	    -17.15839420	     10.38087875	     -0.29988125	      5.96581605	     -3.78669600	     -8.62901893	    -21.05181968	     12.15057495	     -2.70266064	     -8.83567266	     -0.44585276	     -6.52674018
      1.50000000	      1.27517719	     -1.42950580	      2.09709241	      1.03676306	      0.93677329	     -0.00314659	      4.78884420	      0.85482246	    -14.46830778	    -17.29560055	     10.37595810	     -0.31644458	      6.00907218	     -3.81391771	     -8.57723746	    -21.19849740	     12.13044208	     -2.69473643	     -8.96328050	     -0.46505206	     -6.54116216
      1.51000000	      1.25681109	     -1.43243767	      2.10521307	      1.03622586	      0.93660351	     -0.00251840	      4.94124844	      0.88487729	    -14.47169649	    -17.47150898	     10.44205467	     -0.48129425	      6.21348846	     -3.88003103	     -8.54406000	    -21.45916661	     12.12709254	     -2.58566108	     -9.00792672	     -0.46077924	     -6.57326024
      1.52000000	      1.31775639	     -1.43260538	      2.10182782	      1.03571167	      0.93657211	     -0.00184787	      4.99350270	      0.91909005	    -14.46240379	    -17.62190402	     10.45915897	     -0.52981289	      6.31930966	     -3.94488575	     -8.50243663	    -21.70033776	     12.09364655	     -2.55466698	     -9.14607329	     -0.45700451	     -6.59805704
      1.53000000	      1.38939515	     -1.41458577	      2.08987746	      1.03515176	      0.93656284	     -0.00113473	      5.02437392	      0.94240217	    -14.41328581	    -17.74633349	     10.45688785	     -0.55436448	      6.41841058	     -3.98158878	     -8.39854395	    -21.94522621	     12.07341638	     -2.53843185	     -9.30732161	     -0.48043024	     -6.57859073
      1.54000000	      1.35038940	     -1.48826514	      2.13122609	      1.03448156	      0.93630018	     -0.00040821	      5.18477355	      1.06062053	    -14.45550942	    -17.87412174	     10.48593382	     -0.73562056	      6.75761998	     -4.14165680	     -8.29617573	    -22.37877008	     12.11163789	     -2.40000078	     -9.34214472	     -0.39907415	     -6.62074972
      1.55000000	      1.36863667	     -1.52656756	      2.12387864	      1.03377130	      0.93613746	      0.00037472	      5.30170281	      1.14235147	    -14.43602047	    -18.02971266	     10.49833947	     -0.87054306	      7.00381792	     -4.25549239	     -8.18898090	    -22.76225147	     12.10288885	     -2.30021618	     -9.45507614	     -0.35374068	     -6.62074040
      1.56000000	      1.42360789	     -1.57375215	      2.11890961	      1.03302930	      0.93601309	      0.00119693	      5.35869290	      1.23915510	    -14.44413145	    -18.14151717	     10.52302278	     -0.94608740	      7.23905520	     -4.38974445	     -8.09665346	    -23.19388272	     12.09209552	     -2.24674386	     -9.61768563	     -0.30174644	     -6.58977126
      1.57000000	      1.43276038	     -1.64479653	      2.11052211	      1.03216256	      0.93578096	      0.00207655	      5.48862039	      1.36450238	    -14.42436003	    -18.27897199	     10.50877227	     -1.08584392	      7.55722262	     -4.54710253	     -7.94992588	    -23.66840244	     12.11889878	     -2.14799590	     -9.74133228	     -0.22584848	     -6.56235099
      1.58000000	      1.46690130	     -1.72056356	      2.09293977	      1.03125354	      0.93556622	      0.00300158	      5.58205125	      1.49784351	    -14.42448725	    -18.39187083	     10.51429601	     -1.20051884	      7.86903030	     -4.71829375	     -7.82330996	    -24.17874854	     12.12791067	     -2.06924047	     -9.90102707	     -0.14496216	     -6.50579656
      1.59000000	      1.51607962	     -1.80565671	      2.07023467	      1.03028972	      0.93535695	      0.00398058	      5.64892589	      1.64435590	    -14.45278943	    -18.47646855	     10.53116114	     -1.29042817	      8.18702807	     -4.90921746	     -7.71479126	    -24.72320478	     12.11964058	     -2.00852837	    -10.08677589	     -0.05838969	     -6.42242045
      1.60000000	      1.52462464	     -1.91390821	      2.03984335	      1.02919626	      0.93505925	      0.00500034	      5.78131843	      1.81535163	    -14.45966322	    -18.58317904	     10.49964524	     -1.42979359	      8.57442223	     -5.11985558	     -7.55320918	    -25.29770605	     12.14338556	     -1.90836069	    -10.24138377	      0.05800080	     -6.34453470
      1.61000000	      1.54812964	     -2.02978018	      2.00692535	      1.02805288	      0.93477263	      0.00606973	      5.88732038	      1.99663201	    -14.50151647	    -18.66512804	     10.48732343	     -1.54981359	      8.96361963	     -5.34851717	     -7.41332333	    -25.89680323	     12.13801859	     -1.81786732	    -10.42137874	      0.17707390	     -6.24119149
      1.62000000	      1.57063423	     -2.15694852	      1.97647423	      1.02682512	      0.93447667	      0.00715915	      5.99234985	      2.19095815	    -14.56133410	    -18.73132011	     10.46756742	     -1.66234166	      9.37225593	     -5.59249310	     -7.27154518	    -26.51633551	     12.12314637	     -1.72792854	    -10.61409617	      0.31142735	     -6.12825317
      1.63000000	      1.59061047	     -2.29166605	      1.94619299	      1.02553983	      0.93417299	      0.00827370	      6.09455581	      2.39416083	    -14.63600029	    -18.78192258	     10.44010974	     -1.77031561	      9.79588739	     -5.84668814	     -7.12364620	    -27.14666989	     12.09937192	     -1.63662243	    -10.81057322	      0.45188256	     -6.01373644
      1.64000000	      1.60363334	     -2.43030727	      1.92026476	      1.02417730	      0.93385639	      0.00939096	      6.20687917	      2.60014445	    -14.73013393	    -18.82776593	     10.40883440	     -1.88456778	     10.23955530	     -6.10494149	     -6.96773173	    -27.78689782	     12.05917980	     -1.53507022	    -11.01067153	      0.59962829	     -5.89006751
